<svg width="27" height="28" viewBox="0 0 27 28" fill="none" xmlns="http://www.w3.org/2000/svg">
<g id="cloud.rain" clip-path="url(#clip0_350_98)">
<g id="Group">
<path id="Vector" d="M17.8601 26.6517L21.3288 20.6517C21.528 20.3002 21.4226 19.9017 21.0827 19.7025C20.7546 19.4916 20.3327 19.597 20.1218 19.9603L16.6765 25.9369C16.4773 26.2884 16.5827 26.6986 16.9226 26.9095C17.2624 27.1087 17.6609 27.0033 17.8601 26.6517Z" fill="white"/>
<path id="Vector_2" d="M15.1396 23.3123L16.6631 20.6638C16.874 20.3123 16.7568 19.9021 16.4052 19.6912C16.0537 19.492 15.6552 19.5974 15.4443 19.9607L13.9092 22.6326C13.7099 22.9607 13.8037 23.3709 14.167 23.5818C14.5185 23.781 14.9404 23.6521 15.1396 23.3123Z" fill="white"/>
<path id="Vector_3" d="M8.54248 26.6634L11.9995 20.6634C12.1987 20.3119 12.105 19.9134 11.7651 19.7142C11.4253 19.5033 10.9917 19.6087 10.7925 19.972L7.35889 25.9486C7.15967 26.3002 7.25342 26.7103 7.60498 26.9212C7.94482 27.1205 8.34326 27.0033 8.54248 26.6634Z" fill="white"/>
<path id="Vector_4" d="M5.81229 23.324L7.33573 20.6756C7.55838 20.324 7.4412 19.9138 7.08963 19.7029C6.73807 19.5037 6.33963 19.6091 6.11698 19.9724L4.58182 22.6443C4.3826 22.9724 4.48807 23.3826 4.85135 23.5935C5.1912 23.7927 5.61307 23.6638 5.81229 23.324Z" fill="white"/>
<path id="Vector_5" d="M5.50781 17.8398H20.0508C23.8945 17.8398 26.7539 14.9218 26.7539 11.3125C26.7539 7.57422 23.707 4.84375 19.7344 4.84375C18.2695 1.94922 15.5508 0.0859375 12.1641 0.0859375C7.75781 0.0859375 4.125 3.54297 3.73828 7.89063C1.61719 8.51172 0 10.3515 0 12.8242C0 15.6015 2.01562 17.8398 5.50781 17.8398ZM5.48438 15.9648C3.08203 15.9648 1.875 14.6172 1.875 12.8828C1.875 11.4765 2.69531 10.2109 4.6875 9.68359C5.33203 9.50781 5.56641 9.20313 5.625 8.54688C5.89453 4.71484 8.76562 1.96094 12.1641 1.96094C14.8008 1.96094 16.875 3.41406 18.1406 6.00391C18.4102 6.57813 18.7617 6.77734 19.4531 6.77734C22.9219 6.77734 24.8789 8.86328 24.8789 11.3593C24.8789 13.914 22.8398 15.9648 20.168 15.9648H5.48438Z" fill="white"/>
</g>
</g>
<defs>
<clipPath id="clip0_350_98">
<rect width="26.7539" height="27.0187" fill="white"/>
</clipPath>
</defs>
</svg>
