<svg width="26" height="26" viewBox="0 0 26 26" fill="none" xmlns="http://www.w3.org/2000/svg">
<g id="sun.max" clip-path="url(#clip0_350_125)">
<g id="Group">
<path id="Vector" d="M21.3027 4.81438L21.3026 4.81442L19.5098 6.60736C19.3139 6.8032 18.9842 6.80709 18.7729 6.60482C18.5875 6.41646 18.5804 6.08829 18.7786 5.88168L20.5771 4.08319C20.7836 3.88503 21.1117 3.89212 21.3 4.07753C21.4987 4.28519 21.4905 4.62661 21.3027 4.81438ZM18.7766 19.546L18.7755 19.5448C18.5893 19.3587 18.5796 19.0331 18.7729 18.8253C18.9814 18.6374 19.3133 18.6459 19.5013 18.8256L21.3026 20.627C21.4897 20.814 21.4986 21.1417 21.3027 21.3493C21.1063 21.5341 20.7743 21.5383 20.5744 21.3554L18.7766 19.546ZM6.56051 19.5448L6.55936 19.546L4.77337 21.3437C4.57405 21.5259 4.233 21.5223 4.03594 21.3402C3.84818 21.1316 3.8581 20.8021 4.04495 20.6153L3.69141 20.2617L4.04496 20.6153L5.8347 18.8256C6.02178 18.6467 6.36278 18.6374 6.57196 18.8227C6.7572 19.0315 6.74656 19.3588 6.56051 19.5448ZM6.56599 6.60199L6.56582 6.60215C6.35859 6.80329 6.02706 6.79599 5.8384 6.60785C5.83825 6.6077 5.83809 6.60755 5.83794 6.60739L4.04612 4.80385L4.04496 4.8027C3.87252 4.63025 3.85705 4.28898 4.05926 4.07755C4.24383 3.8961 4.58287 3.89286 4.78196 4.08284L6.56856 5.88112C6.756 6.07661 6.74731 6.42616 6.56599 6.60199ZM13.1875 3.53906C13.1875 3.82919 12.9506 4.05859 12.6797 4.05859C12.3934 4.05859 12.1602 3.82544 12.1602 3.53906V1.01953C12.1602 0.733154 12.3934 0.5 12.6797 0.5C12.9506 0.5 13.1875 0.729396 13.1875 1.01953V3.53906ZM21.8203 13.2227C21.5382 13.2227 21.3008 12.9821 21.3008 12.7148C21.3008 12.4402 21.5457 12.1953 21.8203 12.1953H24.3398C24.607 12.1953 24.8477 12.4328 24.8477 12.7148C24.8477 12.9895 24.6145 13.2227 24.3398 13.2227H21.8203ZM12.1602 21.8789C12.1602 21.608 12.3896 21.3711 12.6797 21.3711C12.9544 21.3711 13.1875 21.6042 13.1875 21.8789V24.4102C13.1875 24.6848 12.9543 24.918 12.6797 24.918C12.3896 24.918 12.1602 24.681 12.1602 24.4102V21.8789ZM3.52734 12.1953C3.80198 12.1953 4.04688 12.4402 4.04688 12.7148C4.04688 12.982 3.80944 13.2227 3.52734 13.2227H1.00781C0.733225 13.2227 0.5 12.9895 0.5 12.7148C0.5 12.4327 0.740633 12.1953 1.00781 12.1953H3.52734Z" fill="white" fill-opacity="0.85" stroke="white"/>
<path id="Vector_2" d="M18.1328 12.7148C18.1328 15.7089 15.649 18.1914 12.668 18.1914C9.68694 18.1914 7.20312 15.7089 7.20312 12.7148C7.20312 9.70847 9.68757 7.22656 12.668 7.22656C15.6484 7.22656 18.1328 9.70846 18.1328 12.7148ZM7.98438 12.7148C7.98438 15.2761 10.1067 17.3984 12.668 17.3984C15.2292 17.3984 17.3516 15.2762 17.3516 12.7148C17.3516 10.1428 15.2301 8.01953 12.668 8.01953C10.1058 8.01953 7.98438 10.1428 7.98438 12.7148Z" fill="white" fill-opacity="0.85" stroke="white"/>
</g>
</g>
<defs>
<clipPath id="clip0_350_125">
<rect width="25.3477" height="25.4414" fill="white"/>
</clipPath>
</defs>
</svg>
